# xmcd
#
# Track frame offsets:
#	150
#	46418
#	94704
#	112176
#	127471
#	153157
#	158660
#	202265
#	238870
#	249179
#
# Disc length: 3538 seconds
#
# Revision: 1
# Processed by: cddbd v1.5.2PL0 Copyright (c) Steve Scherf et al.
# Submitted via: audiograbber 1.83.01
#
DISCID=8a0dd00a
DTITLE=Grateful Dead - 79-09-01 Holleder Memorial Stadium, Rochester NY
DYEAR=1900
DGENRE=
TTITLE0=Mississippi Half-Step
TTITLE1=Franklin's Tower
TTITLE2=Tuning
TTITLE3=Me and My Uncle
TTITLE4=Big River
TTITLE5=Tuning
TTITLE6=Friend Of The Devil
TTITLE7=Looks Like Rain
TTITLE8=Tuning
TTITLE9=Don't Ease Me In
EXTD=
EXTT0=
EXTT1=
EXTT2=
EXTT3=
EXTT4=
EXTT5=
EXTT6=
EXTT7=
EXTT8=
EXTT9=
PLAYORDER=
